<?xml version="1.0" encoding="UTF-8" standalone="no"?>
<!-- Created with Inkscape (http://www.inkscape.org/) -->

<svg
   width="48"
   height="48"
   viewBox="0 0 48 48"
   version="1.1"
   id="svg5"
   sodipodi:docname="logo.svg"
   inkscape:export-filename="C:\Projects\StaticPaster\src\images\static-paster-logo_72.png"
   inkscape:export-xdpi="144"
   inkscape:export-ydpi="144"
   inkscape:version="1.1.1 (3bf5ae0d25, 2021-09-20)"
   xmlns:inkscape="http://www.inkscape.org/namespaces/inkscape"
   xmlns:sodipodi="http://sodipodi.sourceforge.net/DTD/sodipodi-0.dtd"
   xmlns="http://www.w3.org/2000/svg"
   xmlns:svg="http://www.w3.org/2000/svg">
  <sodipodi:namedview
     id="namedview7"
     pagecolor="#ffffff"
     bordercolor="#666666"
     borderopacity="1.0"
     inkscape:pageshadow="2"
     inkscape:pageopacity="0.0"
     inkscape:pagecheckerboard="0"
     inkscape:document-units="px"
     showgrid="false"
     inkscape:zoom="6.0693332"
     inkscape:cx="64.83414"
     inkscape:cy="57.255054"
     inkscape:window-width="1920"
     inkscape:window-height="1057"
     inkscape:window-x="1912"
     inkscape:window-y="526"
     inkscape:window-maximized="1"
     inkscape:current-layer="layer1"
     width="96px" />
  <defs
     id="defs2" />
  <g
     inkscape:label="Layer 1"
     inkscape:groupmode="layer"
     id="layer1">
    <path
       style="color:#000000;fill:#784421;stroke:#000000;stroke-linecap:round;stroke-linejoin:round;-inkscape-stroke:none"
       d="M 10.951172,8.3769531 C 10.33308,8.3769344 9.8320126,8.8780017 9.8320313,9.4960938 V 44.796875 c -1.88e-5,0.618092 0.5010487,1.11916 1.1191407,1.119141 h 26.214844 c 0.617329,-0.0011 1.117207,-0.501811 1.117187,-1.119141 V 9.4960938 c 2e-5,-0.6173299 -0.499858,-1.1180816 -1.117187,-1.1191407 z"
       id="rect846"
       sodipodi:nodetypes="ccccccccc" />
    <path
       id="rect3784"
       style="fill:#ffccaa;stroke:#000000;stroke-width:1.238;stroke-linecap:round;stroke-linejoin:round;stroke-miterlimit:4;stroke-dasharray:none;stop-color:#000000"
       d="M 35.417476,36.638306 V 10.834951 H 13.281554 v 0 32.621361 l 15.31976,-10e-7 z"
       sodipodi:nodetypes="cccccc" />
    <g
       id="rect1040"
       style="stroke-width:0.8;stroke-miterlimit:4;stroke-dasharray:none">
      <path
         style="color:#000000;fill:#917c6f;stroke:#000000;stroke-width:0.8;stroke-linecap:round;stroke-linejoin:round;stroke-miterlimit:4;stroke-dasharray:none"
         d="m 23.941406,0.74414062 c -2.277868,-1.2829e-4 -4.148565,1.87056928 -4.148437,4.14843748 -4.1e-5,0.7248661 0.240586,1.373525 0.572265,1.96875 h -3.18164 c -0.618091,-1.61e-5 -1.119157,0.5010496 -1.119141,1.1191406 l -0.05825,3.4245493 c -1.6e-5,0.618091 0.50105,1.119156 1.119141,1.11914 h 13.748047 c 0.61809,1.6e-5 1.119156,-0.50105 1.11914,-1.11914 l 0.05825,-3.4245493 c 1.6e-5,-0.6180906 -0.501049,-1.1191561 -1.11914,-1.1191406 h -3.414063 c 0.33168,-0.595225 0.572307,-1.2438839 0.572266,-1.96875 1.28e-4,-2.2778682 -1.870569,-4.14856577 -4.148438,-4.14843748 z m 0,2.23828128 c 1.068276,-6.02e-5 1.910217,0.8418808 1.910156,1.9101562 6.1e-5,1.0682755 -0.84188,1.9102164 -1.910156,1.9101563 -1.068275,6.01e-5 -1.910216,-0.8418808 -1.910156,-1.9101563 -6e-5,-1.0682754 0.841881,-1.9102164 1.910156,-1.9101562 z"
         id="path1660"
         sodipodi:nodetypes="ccccccccccccccccccc" />
    </g>
    <rect
       style="opacity:0.301587;fill:#803300;stroke:none;stroke-width:0.8;stroke-linecap:round;stroke-linejoin:round;stroke-miterlimit:4;stroke-dasharray:none;stop-color:#000000"
       id="rect6243"
       width="2.3237526"
       height="37.106796"
       x="36.006344"
       y="8.3883495" />
    <rect
       style="opacity:0.301587;fill:#803300;stroke:none;stroke-width:0.8;stroke-linecap:round;stroke-linejoin:round;stroke-miterlimit:4;stroke-dasharray:none;stop-color:#000000"
       id="rect6243-8"
       width="1.996654"
       height="24.660585"
       x="32.809174"
       y="11.426794" />
    <rect
       style="opacity:0.301587;fill:#803300;stroke:none;stroke-width:0.8;stroke-linecap:round;stroke-linejoin:round;stroke-miterlimit:4;stroke-dasharray:none;stop-color:#000000"
       id="rect6243-8-6"
       width="2.6083045"
       height="2.5048554"
       x="13.550218"
       y="8.2427177" />
    <rect
       style="opacity:0.301587;fill:#803300;stroke:none;stroke-width:0.8;stroke-linecap:round;stroke-linejoin:round;stroke-miterlimit:4;stroke-dasharray:none;stop-color:#000000"
       id="rect6243-8-6-3"
       width="2.6083045"
       height="5.1844668"
       x="29.453129"
       y="7.0194168" />
    <path
       style="fill:#c87137;stroke:#000000;stroke-width:1px;stroke-linecap:butt;stroke-linejoin:round;stroke-opacity:1"
       d="m 28.601314,43.456311 v -6.873787 h 6.699657 z"
       id="path6070" />
    <path
       id="path9701"
       style="color:#000000;fill:#241c1c;stroke-width:1;stroke-linecap:round;stroke-linejoin:round;-inkscape-stroke:none"
       d="m 23.592271,17.9742 c -2.19847,-7.37e-4 -3.916166,2.155312 -3.91708,4.711244 -5.7e-5,0.0039 -5.7e-5,0.0078 0,0.01165 0.0031,0.102772 0.01076,0.206225 0.01953,0.308775 h -2.569249 v 9.323448 h 13.339846 v -9.323449 h -2.810736 c 0.0083,-0.103384 0.01502,-0.206826 0.01758,-0.310717 2e-6,-6.48e-4 2e-6,-0.0013 0,-0.002 2e-6,-6.47e-4 2e-6,-0.0013 0,-0.002 2e-6,-6.48e-4 2e-6,-0.0013 0,-0.002 2e-6,-6.47e-4 2e-6,-0.0013 0,-0.002 2e-6,-6.47e-4 2e-6,-0.0013 0,-0.002 -9.14e-4,-2.554927 -1.882281,-4.710464 -4.079889,-4.711245 z m 0,1.063951 c 1.640171,5.82e-4 2.984149,1.847762 2.773101,3.975055 h -5.589347 c -0.211024,-2.189931 1.175418,-3.975605 2.816246,-3.975055 z m 0.117187,5.12514 c 1.066467,1.44e-4 1.930659,0.838531 1.929688,1.87207 -0.0029,0.665352 -0.690681,1.279125 -1.285232,1.611844 l 0.320388,3.056754 h -1.931641 l 0.203883,-3.056754 c -0.59455,-0.332719 -1.165835,-0.946492 -1.168726,-1.611844 -9.72e-4,-1.034277 0.864411,-1.872972 1.93164,-1.87207 z"
       sodipodi:nodetypes="ccccccccccssssccccccccccccccc" />
    <rect
       style="opacity:0.3;fill:#ac9393;stroke:none;stroke-width:0.8;stroke-linecap:round;stroke-linejoin:round;stroke-miterlimit:4;stroke-dasharray:none;stop-color:#000000"
       id="rect11908"
       width="2.2639449"
       height="9.4116077"
       x="28.201374"
       y="23.005869" />
    <rect
       style="opacity:0.3;fill:none;stroke:none;stroke-width:0.8;stroke-linecap:round;stroke-linejoin:round;stroke-miterlimit:4;stroke-dasharray:none;stop-color:#000000"
       id="rect14039"
       width="48"
       height="48"
       x="0"
       y="0" />
  </g>
</svg>
